<svg id="图层_1" data-name="图层 1" xmlns="http://www.w3.org/2000/svg" viewBox="0 0 272.7 235.81"><defs><style>.cls-1,.cls-5,.cls-6,.cls-8{fill:none;stroke:#231815;stroke-miterlimit:10;}.cls-2,.cls-3,.cls-4,.cls-7{fill:#231815;}.cls-3,.cls-4{font-size:12px;}.cls-3,.cls-4,.cls-7{font-family:AdobeSongStd-Light-GBpc-EUC-H, Adobe Song Std;}.cls-4{writing-mode:tb;text-orientation:upright;glyph-orientation-vertical:0deg;}.cls-5{stroke-dasharray:1.49 1.49;}.cls-6{stroke-dasharray:1.5 1.5;}.cls-7{font-size:5px;}.cls-8{stroke-width:0.5px;}</style></defs><title>1</title><line class="cls-1" x1="15.04" y1="8.15" x2="15.04" y2="213.13"/><path class="cls-2" d="M125,97.07l3.6,2.19.08-.12-2.33-5.88L125,87.12l-1.35,6.14-2.33,5.88.06.12Z" transform="translate(-109.99 -87.12)"/><line class="cls-1" x1="245.8" y1="213.13" x2="15.04" y2="213.13"/><path class="cls-2" d="M354,300.25l-2.19,3.61.12.08,5.87-2.34,6.14-1.35-6.14-1.35-5.87-2.33-.12.06Z" transform="translate(-109.99 -87.12)"/><line class="cls-1" x1="42.4" y1="179.37" x2="209.06" y2="100.9"/><line class="cls-1" x1="52.11" y1="106.57" x2="181.55" y2="182.61"/><line class="cls-1" x1="90.78" y1="88.1" x2="220.22" y2="164.14"/><text class="cls-3" transform="translate(229.95 232.77)">数量</text><text class="cls-4" transform="translate(6 0)">价格</text><text class="cls-3" transform="translate(217.28 97.03)">供给</text><text class="cls-3" transform="translate(187.65 193.93)">需求</text><text class="cls-3" transform="translate(224.7 166.78)">社会价值</text><line class="cls-1" x1="116.59" y1="144.44" x2="116.59" y2="145.19"/><line class="cls-5" x1="116.59" y1="146.69" x2="116.59" y2="211.63"/><line class="cls-1" x1="116.59" y1="212.38" x2="116.59" y2="213.13"/><line class="cls-1" x1="155.5" y1="126.12" x2="155.5" y2="126.87"/><line class="cls-6" x1="155.5" y1="128.37" x2="155.5" y2="211.63"/><line class="cls-1" x1="155.5" y1="212.38" x2="155.5" y2="213.13"/><text class="cls-3" transform="translate(104.83 227.37)">均衡</text><text class="cls-3" transform="translate(143.5 227.37)">最优</text><text class="cls-7" transform="translate(94.99 103.34) rotate(90)">外<tspan x="5.01" y="0">部</tspan><tspan x="10.03" y="0">利</tspan><tspan x="15.02" y="0">益</tspan></text><line class="cls-8" x1="93.99" y1="101.11" x2="93.99" y2="126.12"/><path class="cls-2" d="M204,189.13l1.8,1.09,0-.06-1.17-2.94c-.22-1-.45-2-.67-3.07-.23,1-.45,2-.68,3.07l-1.16,2.94,0,.06Z" transform="translate(-109.99 -87.12)"/></svg>